<svg width="48" height="48" viewBox="0 0 48 48" fill="none" xmlns="http://www.w3.org/2000/svg">
<path d="M26.7756 9.90909V39H22.0881L8.38068 19.1847H8.1392V39H2.86932V9.90909H7.58523L21.2784 29.7386H21.5341V9.90909H26.7756Z" fill="#FFB347"/>
<path d="M23.8693 39V9.90909H35.0057C37.108 9.90909 38.8551 10.2405 40.2472 10.9034C41.6487 11.5568 42.6951 12.4517 43.3864 13.5881C44.0871 14.7244 44.4375 16.0123 44.4375 17.4517C44.4375 18.6354 44.2102 19.6487 43.7557 20.4915C43.3011 21.3248 42.6903 22.0019 41.9233 22.5227C41.1562 23.0436 40.2992 23.4176 39.3523 23.6449V23.929C40.3845 23.9858 41.3741 24.303 42.321 24.8807C43.2775 25.4489 44.0587 26.2538 44.6648 27.2955C45.2708 28.3371 45.5739 29.5966 45.5739 31.0739C45.5739 32.5795 45.2093 33.9337 44.4801 35.1364C43.7509 36.3295 42.6525 37.2718 41.1847 37.9631C39.7169 38.6544 37.8703 39 35.6449 39H23.8693ZM29.1392 34.5966H34.8068C36.7197 34.5966 38.0975 34.232 38.9403 33.5028C39.7926 32.7642 40.2188 31.8172 40.2188 30.6619C40.2188 29.8002 40.0057 29.0237 39.5795 28.3324C39.1534 27.6316 38.5473 27.0824 37.7614 26.6847C36.9754 26.2775 36.0379 26.0739 34.9489 26.0739H29.1392V34.5966ZM29.1392 22.2812H34.3523C35.2614 22.2812 36.0805 22.1155 36.8097 21.7841C37.5388 21.4432 38.1117 20.965 38.5284 20.3494C38.9545 19.7244 39.1676 18.9858 39.1676 18.1335C39.1676 17.0066 38.7699 16.0786 37.9744 15.3494C37.1884 14.6203 36.0189 14.2557 34.4659 14.2557H29.1392V22.2812Z" fill="#F5F5F5"/>
</svg>
